<svg width="50" height="50" viewBox="0 0 50 50" fill="none" xmlns="http://www.w3.org/2000/svg">
<path d="M24.9999 4.16663L25.2437 4.18121C25.7087 4.23605 26.1417 4.44596 26.4728 4.77707C26.8039 5.10817 27.0138 5.54117 27.0687 6.00621L27.0833 6.24996V14.5833L27.0937 14.8958C27.1682 15.8878 27.5952 16.8204 28.2975 17.525C28.9998 18.2296 29.9311 18.6597 30.9228 18.7375L31.2499 18.75H39.5833L39.827 18.7645C40.292 18.8194 40.725 19.0293 41.0561 19.3604C41.3873 19.6915 41.5972 20.1245 41.652 20.5895L41.6666 20.8333V39.5833C41.6667 41.1775 41.0576 42.7114 39.9639 43.8713C38.8702 45.0312 37.3747 45.7294 35.7833 45.8229L35.4166 45.8333H14.5833C12.9891 45.8334 11.4551 45.2243 10.2952 44.1306C9.13532 43.037 8.43719 41.5414 8.34367 39.95L8.33325 39.5833V10.4166C8.33316 8.82244 8.94226 7.28847 10.0359 6.12858C11.1296 4.96869 12.6251 4.27057 14.2166 4.17704L14.5833 4.16663H24.9999ZM19.7916 20.8333C18.4102 20.8333 17.0855 21.382 16.1087 22.3588C15.132 23.3355 14.5833 24.6603 14.5833 26.0416V32.2916C14.5833 33.673 15.132 34.9977 16.1087 35.9745C17.0855 36.9512 18.4102 37.5 19.7916 37.5C21.1729 37.5 22.4977 36.9512 23.4744 35.9745C24.4512 34.9977 24.9999 33.673 24.9999 32.2916C24.9999 31.7391 24.7804 31.2092 24.3897 30.8185C23.999 30.4278 23.4691 30.2083 22.9166 30.2083C22.3641 30.2083 21.8341 30.4278 21.4434 30.8185C21.0527 31.2092 20.8333 31.7391 20.8333 32.2916C20.8333 32.5679 20.7235 32.8328 20.5282 33.0282C20.3328 33.2235 20.0679 33.3333 19.7916 33.3333C19.5153 33.3333 19.2504 33.2235 19.055 33.0282C18.8597 32.8328 18.7499 32.5679 18.7499 32.2916V26.0416C18.7499 25.7654 18.8597 25.5004 19.055 25.3051C19.2504 25.1097 19.5153 25 19.7916 25C20.0679 25 20.3328 25.1097 20.5282 25.3051C20.7235 25.5004 20.8333 25.7654 20.8333 26.0416C20.8333 26.5942 21.0527 27.1241 21.4434 27.5148C21.8341 27.9055 22.3641 28.125 22.9166 28.125C23.4691 28.125 23.999 27.9055 24.3897 27.5148C24.7804 27.1241 24.9999 26.5942 24.9999 26.0416C24.9999 25.3577 24.8652 24.6804 24.6035 24.0485C24.3417 23.4166 23.9581 22.8424 23.4744 22.3588C22.9908 21.8751 22.4166 21.4915 21.7847 21.2298C21.1528 20.968 20.4756 20.8333 19.7916 20.8333ZM33.8395 20.8958C33.3035 20.7615 32.7362 20.8457 32.2623 21.1297C31.7884 21.4138 31.4467 21.8744 31.3124 22.4104L30.2083 26.825L29.1041 22.4104C29.0392 22.1433 28.9221 21.8917 28.7596 21.6701C28.597 21.4485 28.3922 21.2612 28.157 21.1191C27.9218 20.9769 27.6607 20.8828 27.3889 20.842C27.1172 20.8011 26.84 20.8145 26.5734 20.8813C26.3068 20.9481 26.056 21.067 25.8356 21.2311C25.6151 21.3952 25.4293 21.6013 25.2889 21.8376C25.1484 22.0738 25.0561 22.3355 25.0172 22.6076C24.9784 22.8797 24.9937 23.1568 25.0624 23.4229L28.1874 35.9229C28.7124 38.027 31.7041 38.027 32.2291 35.9229L35.3541 23.4229C35.4883 22.8869 35.4042 22.3196 35.1202 21.8457C34.8361 21.3718 34.3755 21.0301 33.8395 20.8958ZM31.2478 6.24788L39.5833 14.5833H31.2499L31.2478 6.24788Z" fill="black"/>
</svg>
